<?xml version="1.0" encoding="UTF-8"?>
<svg width="18px" height="16px" viewBox="0 0 18 16" version="1.1" xmlns="http://www.w3.org/2000/svg" xmlns:xlink="http://www.w3.org/1999/xlink">
    <!-- Generator: Sketch 50.2 (55047) - http://www.bohemiancoding.com/sketch -->
    <title>08-属性</title>
    <desc>Created with Sketch.</desc>
    <defs></defs>
    <g id="鱼儿飞内部系统" stroke="none" stroke-width="1" fill="none" fill-rule="evenodd">
        <g id="产品属性列表" transform="translate(-61.000000, -599.000000)" fill-rule="nonzero">
            <g id="Group-2-Copy">
                <g id="Group-27">
                    <g id="Group-5" transform="translate(29.000000, 580.750000)">
                        <g id="08-属性" transform="translate(31.000000, 16.000000)">
                            <rect id="Rectangle-path" fill="#000000" opacity="0" x="0" y="0" width="20" height="20"></rect>
                            <path d="M1.41666667,5.65433334 L5.06783333,5.65433334 C5.31699999,6.526 6.11899999,7.16666666 7.06949999,7.16666666 C8.02016665,7.16666666 8.82216665,6.526 9.07133333,5.65433334 L17.75,5.65433334 C17.9801186,5.65433334 18.1666667,5.46778532 18.1666667,5.23766667 C18.1666667,5.00754802 17.9801186,4.821 17.75,4.821 L9.13466667,4.821 C9.00516667,3.79583334 8.12933333,3 7.06949999,3 C6.00966665,3 5.13399999,3.79583334 5.00449999,4.821 L1.41666667,4.821 C1.18654802,4.821 1,5.00754802 1,5.23766667 C1,5.46778532 1.18654802,5.65433334 1.41666667,5.65433334 Z M7.06949999,3.83333334 C7.75883333,3.83333334 8.31949999,4.39383334 8.31949999,5.083 C8.31949999,5.7725 7.75883333,6.33333334 7.06949999,6.33333334 C6.38016665,6.33333334 5.81949999,5.7725 5.81949999,5.083 C5.81949999,4.39383334 6.38033333,3.83333334 7.06949999,3.83333334 Z M17.75,10.321 L13.7051667,10.321 C13.5398333,9.33666666 12.684,8.58333334 11.653,8.58333334 C10.622,8.58333334 9.76616665,9.33666668 9.60083333,10.321 L1.41666667,10.321 C1.18654802,10.321 1,10.507548 1,10.7376667 C1,10.9677853 1.18654802,11.1543333 1.41666667,11.1543333 L9.62966667,11.1543333 C9.85016667,12.0681667 10.6725,12.75 11.653,12.75 C12.6335,12.75 13.4556667,12.0681667 13.6763333,11.1543333 L17.75,11.1543333 C17.9801186,11.1543333 18.1666667,10.9677853 18.1666667,10.7376667 C18.1666667,10.507548 17.9801186,10.321 17.75,10.321 Z M11.653,11.9166667 C10.9636667,11.9166667 10.403,11.3558333 10.403,10.6663333 C10.403,9.97716668 10.9636667,9.41666668 11.653,9.41666666 C12.3423333,9.41666664 12.903,9.97716666 12.903,10.6663333 C12.903,11.3558333 12.3423333,11.9166667 11.653,11.9166667 Z M17.75,15.6543333 L9.13466667,15.6543333 C9.00516667,14.6291667 8.12933333,13.8333333 7.06949999,13.8333333 C6.00966665,13.8333333 5.13399999,14.6291667 5.00449999,15.6543333 L1.41666667,15.6543333 C1.18654803,15.6543333 1.00000001,15.8408814 1.00000001,16.071 C1.00000001,16.3011186 1.18654803,16.4876667 1.41666667,16.4876667 L5.06783333,16.4876667 C5.31699999,17.3593333 6.11916667,18 7.06966667,18 C8.02033333,18 8.82233333,17.3593333 9.07149999,16.4876667 L17.75,16.4876667 C17.9801186,16.4876667 18.1666667,16.3011186 18.1666667,16.071 C18.1666667,15.8408814 17.9801186,15.6543333 17.75,15.6543333 Z M7.06949999,17.1666667 C6.38016665,17.1666667 5.81949999,16.6058333 5.81949999,15.9163333 C5.81949999,15.2271667 6.38016665,14.6666667 7.06949999,14.6666667 C7.75883333,14.6666666 8.31949999,15.2271667 8.31949999,15.9163333 C8.31966665,16.6058333 7.75899999,17.1666667 7.06949999,17.1666667 Z" id="Shape" fill="#FFFFFF"></path>
                        </g>
                    </g>
                </g>
            </g>
        </g>
    </g>
</svg>