<?xml version="1.0" encoding="UTF-8"?>
<svg width="18px" height="18px" viewBox="0 0 18 18" version="1.1" xmlns="http://www.w3.org/2000/svg" xmlns:xlink="http://www.w3.org/1999/xlink">
    <!-- Generator: Sketch 50.2 (55047) - http://www.bohemiancoding.com/sketch -->
    <title>商户管理</title>
    <desc>Created with Sketch.</desc>
    <defs></defs>
    <g id="鱼儿飞内部系统" stroke="none" stroke-width="1" fill="none" fill-rule="evenodd">
        <g id="商户管理列表-copy" transform="translate(-61.000000, -527.000000)" fill-rule="nonzero">
            <g id="Group-2-Copy">
                <g id="Group-27">
                    <g id="Group-5-Copy" transform="translate(29.000000, 510.500000)">
                        <g id="商户管理" transform="translate(31.000000, 16.000000)">
                            <rect id="Rectangle-path" fill="#000000" opacity="0" x="0" y="0" width="20" height="20"></rect>
                            <path d="M13.9173633,18.125 C13.5625586,18.125 13.2029492,18.0873242 12.848418,18.0130664 L12.4926562,17.9539062 L12.0133203,16.5558008 C11.985,16.4707617 11.8745312,16.3961914 11.7769141,16.3961914 C11.7679001,16.396176 11.7588995,16.396888 11.75,16.3983203 L10.259082,16.6337695 L10.0265039,16.4010156 C9.84267578,16.2172852 9.68318359,15.9924023 9.55248047,15.7326953 C9.36199219,15.398457 9.24199219,15.1225781 9.17591797,14.866875 L9.05330078,14.5602734 L10.0475781,13.4466211 C10.1173828,13.3546875 10.1071094,13.2143945 10.0624805,13.1697266 L10.0542383,13.1615039 L9.0915625,11.9982422 L9.21529297,11.6891016 C9.39181641,11.1625586 9.67576172,10.6688086 10.0832227,10.1798242 L10.0904297,10.1711719 L10.2463477,10.0153516 C9.76041016,10.2083984 9.2390625,10.3163477 8.70105469,10.3328906 L8.6934375,10.3320312 L8.65753906,10.3320312 C5.23039062,10.3320312 2.4421875,13.1212305 2.4421875,16.5484375 C2.4421875,16.899668 2.18720703,17.1551367 1.83587891,17.1551367 C1.48460937,17.1551367 1.22966797,16.9004297 1.22966797,16.5491406 C1.22966797,15.7226172 1.365,14.9102734 1.631875,14.1345508 C1.88976562,13.385 2.26521484,12.6839453 2.74779297,12.0506836 C3.22505859,11.4244336 3.79488281,10.8803906 4.44142578,10.4336914 C4.94287109,10.0872266 5.48087891,9.80609375 6.0465625,9.59449219 C5.50292969,9.23599609 5.04236328,8.77046875 4.69699219,8.22669922 C4.23722656,7.50283203 3.99421875,6.65625 3.99421875,5.77841797 C3.99421875,4.56630859 4.46941406,3.42361328 5.33222656,2.56078125 C6.19505859,1.69794922 7.33777344,1.22277344 8.54990234,1.22277344 C9.76197266,1.22277344 10.904668,1.69794922 11.7674414,2.56076172 C12.6302734,3.42359375 13.1054297,4.56630859 13.1054297,5.77841797 C13.1054297,6.97246094 12.6520508,8.09970703 11.8288281,8.9525 C11.42,9.37599609 10.940918,9.71007813 10.4162695,9.94380859 L11.7500195,10.1660156 C11.7585937,10.1674609 11.7676758,10.1681641 11.7770898,10.1681641 C11.8800781,10.1681641 12.0010352,10.089043 12.0574609,9.98621094 L12.5668164,8.61472656 L12.8790625,8.55236328 C13.2174609,8.47736328 13.5682617,8.43933594 13.9218555,8.43933594 C14.2737305,8.43933594 14.6318164,8.47697266 14.9862891,8.55125 L15.3406445,8.61021484 L15.8214258,9.97267578 C15.8521094,10.0647266 15.9725391,10.1672656 16.09625,10.1672656 C16.1064258,10.1672656 16.116543,10.1665625 16.1263672,10.1651563 L17.5780078,9.96902344 L17.8161328,10.2071484 L17.8233203,10.2157422 C18.0124219,10.4426367 18.1670117,10.6384766 18.2849414,10.9077344 C18.3717578,11.0564648 18.4544727,11.25625 18.5345117,11.4496484 C18.5608104,11.5135535 18.5874971,11.5772981 18.6145703,11.6408789 L18.6169141,11.6464844 L18.7432812,11.9623438 L17.7895312,13.114707 C17.719375,13.2039063 17.7190039,13.3583594 17.788418,13.4482227 L18.7443555,14.563418 L18.6186328,14.8776563 C18.4003516,15.4873633 18.1183594,15.9849414 17.7803125,16.3566016 L17.7764258,16.360918 L17.5392773,16.5982031 L16.0859375,16.3625977 C16.0766437,16.3610401 16.0672359,16.3602626 16.0578125,16.3602734 C15.9601953,16.3602734 15.8497461,16.4348242 15.8214062,16.5198438 L15.8193945,16.5256055 L15.3053516,17.9493555 L14.9901953,18.0122656 C14.6344141,18.0870898 14.2734961,18.125 13.9173633,18.125 Z M13.4754687,16.9012305 C13.6313086,16.9207031 13.7914648,16.9305273 13.9532617,16.9305273 C14.1164648,16.9305273 14.2779492,16.9205273 14.4350781,16.9007422 L14.7070312,16.1451953 C14.8970117,15.58 15.4710352,15.1700195 16.0732617,15.1700195 C16.1542773,15.1700195 16.2347656,15.1777539 16.3125586,15.1929687 L17.0524023,15.3113672 C17.1572461,15.1560156 17.2683203,14.9715039 17.3515625,14.7675195 L16.8698438,14.1954492 C16.4242578,13.6608008 16.4084766,12.8435937 16.8330664,12.3340625 L17.33875,11.7391797 C17.2903711,11.6450195 17.2378711,11.5476953 17.1700586,11.4346484 L17.1651758,11.426543 L17.160957,11.4180469 C17.1156055,11.3273047 17.0698633,11.2526367 17.015625,11.1746875 L16.2265625,11.2657031 C16.168045,11.2729334 16.1091383,11.27656 16.0501758,11.2765625 C15.4141602,11.276582 14.8324414,10.8645703 14.6348828,10.274375 L14.3973242,9.59150391 C14.2433008,9.57197266 14.0884766,9.56207031 13.935332,9.56207031 C13.7808984,9.56207031 13.624707,9.57212891 13.4694141,9.59199219 L13.1989648,10.3131641 C13.008457,10.8774609 12.424707,11.2865234 11.8088867,11.2865625 C11.7249219,11.2865625 11.6410156,11.2789062 11.5594336,11.2638281 L10.8086914,11.1437695 C10.6884766,11.3112305 10.5901172,11.5086133 10.4950391,11.7020312 L11.0016797,12.2981641 C11.4363086,12.8197266 11.4363086,13.636875 11.0016797,14.158457 L10.4885742,14.7622461 C10.5380469,14.8716602 10.5922656,14.9730469 10.6646875,15.0936719 L10.6696484,15.1019141 L10.6739648,15.1105273 C10.7157617,15.1942773 10.754668,15.2584766 10.7995313,15.315918 L11.6400195,15.1913867 L11.642832,15.1910352 C11.7017139,15.1836958 11.7609945,15.1800168 11.820332,15.1800195 C12.4570703,15.1800195 13.039375,15.5928711 13.2363867,16.1839648 L13.4754688,16.9012305 Z M8.54986328,2.4353125 C6.70644531,2.4353125 5.20673828,3.93501953 5.20673828,5.77841797 C5.20673828,7.62181641 6.70646484,9.12152344 8.54986328,9.12152344 C10.3932617,9.12152344 11.8929687,7.62181641 11.8929687,5.77841797 C11.8929687,3.93501953 10.3932813,2.4353125 8.54986328,2.4353125 Z M13.9353125,15.1450586 C13.4351758,15.1450586 12.9666602,14.9519727 12.6160938,14.6014062 C12.2655273,14.2508398 12.0724609,13.7823242 12.0724609,13.282207 C12.0724609,12.7820703 12.2655273,12.3135352 12.6160938,11.9629687 C12.9666602,11.6123828 13.4351758,11.4193164 13.9353125,11.4193164 C14.4354492,11.4193164 14.9039453,11.6123828 15.2545703,11.9629687 C15.6051367,12.3135352 15.7982031,12.7820703 15.7982031,13.282207 C15.7982031,13.779082 15.5998828,14.2480859 15.2397461,14.6027344 C14.8898047,14.9474023 14.4143359,15.1450586 13.9353125,15.1450586 Z M13.9353125,12.6318164 C13.5706445,12.6318164 13.2849609,12.9175 13.2849609,13.282207 C13.2849609,13.646875 13.5706445,13.9325391 13.9353125,13.9325391 C14.2999805,13.9325391 14.5857031,13.646875 14.5857031,13.282207 C14.5857031,12.9175 14.2999805,12.6318164 13.9353125,12.6318164 Z" id="Shape" fill="#FFFFFF"></path>
                        </g>
                    </g>
                </g>
            </g>
        </g>
    </g>
</svg>