<?xml version="1.0" encoding="UTF-8"?>
<svg width="18px" height="18px" viewBox="0 0 18 18" version="1.1" xmlns="http://www.w3.org/2000/svg" xmlns:xlink="http://www.w3.org/1999/xlink">
    <!-- Generator: Sketch 50.2 (55047) - http://www.bohemiancoding.com/sketch -->
    <title>首页</title>
    <desc>Created with Sketch.</desc>
    <defs></defs>
    <g id="鱼儿飞内部系统" stroke="none" stroke-width="1" fill="none" fill-rule="evenodd">
        <g id="首页" transform="translate(-60.000000, -387.000000)" fill-rule="nonzero">
            <g id="Group-16-Copy" transform="translate(29.000000, 370.000000)">
                <g id="首页" transform="translate(30.000000, 16.000000)">
                    <rect id="Rectangle-path" fill="#000000" opacity="0" x="0" y="0" width="20" height="20"></rect>
                    <path d="M18.7667298,9.05303031 L11.4510732,1.73484848 C11.0520833,1.33585857 10.5243055,1.11868686 9.96117424,1.11868688 C9.39804293,1.11868689 8.87026516,1.33838385 8.47127525,1.73484848 L1.23137627,8.97727273 C1.05460859,9.15404041 1.05460859,9.4419192 1.23137627,9.62121213 C1.40814395,9.7979798 1.69602273,9.7979798 1.87531566,9.62121213 L2.62026516,8.87626262 L2.62026516,16.0934343 C2.62026516,16.8383838 2.90561869,17.5378788 3.42329545,18.0631313 C3.94349746,18.5909091 4.64046717,18.8838384 5.38541666,18.8838384 L14.5520833,18.8838384 C16.0975379,18.8838384 17.3551137,17.6313131 17.3551136,16.0934343 L17.3551136,8.92424242 L18.1253157,9.69444445 C18.2136995,9.7828283 18.3298611,9.82828283 18.4460227,9.82828283 C18.5621844,9.82828283 18.678346,9.78282828 18.7667298,9.69444445 C18.9460227,9.51767678 18.9460227,9.22979799 18.7667298,9.05303031 Z M12.1328914,17.9722222 L7.86521465,17.9722222 L7.86521465,13.0732323 C7.86521465,12.8914141 8.0116793,12.7449495 8.19349748,12.7449495 L11.8046086,12.7449495 C11.9864268,12.7449495 12.1328914,12.8914141 12.1328914,13.0732323 L12.1328914,17.9722222 Z M16.4460227,16.0909091 C16.4460227,17.1287879 15.5975379,17.9722222 14.5520833,17.9722222 L13.0419823,17.9722222 L13.0419823,13.0732323 C13.0419823,12.3914141 12.4864268,11.8358586 11.8046086,11.8358586 L8.19349748,11.8358586 C7.5116793,11.8358586 6.95612375,12.3914141 6.95612373,13.0732323 L6.95612373,17.9722222 L5.38289141,17.9722222 C4.36016414,17.9722222 3.5268308,17.1287879 3.5268308,16.0909091 L3.5268308,7.98484848 L3.50915404,7.98484848 L9.11521465,2.37878787 C9.34248738,2.15151514 9.64299242,2.02777777 9.96117424,2.02777777 C10.2793561,2.02777777 10.5823864,2.15151516 10.8071338,2.37878787 L16.4434975,8.01515152 L16.4434975,16.0909091 L16.4460227,16.0909091 Z" id="Shape" fill="#FFFFFF"></path>
                </g>
            </g>
        </g>
    </g>
</svg>