<?xml version="1.0" encoding="UTF-8"?>
<svg width="20px" height="20px" viewBox="0 0 20 20" version="1.1" xmlns="http://www.w3.org/2000/svg" xmlns:xlink="http://www.w3.org/1999/xlink">
    <!-- Generator: Sketch 50.2 (55047) - http://www.bohemiancoding.com/sketch -->
    <title>标签</title>
    <desc>Created with Sketch.</desc>
    <defs></defs>
    <g id="鱼儿飞内部系统" stroke="none" stroke-width="1" fill="none" fill-rule="evenodd">
        <g id="标签展示列表" transform="translate(-60.000000, -667.000000)" fill-rule="nonzero">
            <g id="Group-2-Copy">
                <g id="Group-27">
                    <g id="Group-10" transform="translate(29.000000, 651.000000)">
                        <g id="标签" transform="translate(31.000000, 16.000000)">
                            <rect id="Rectangle-path" fill="#000000" opacity="0" x="0" y="0" width="20" height="20"></rect>
                            <path d="M4.74609375,2.5078125 C3.5078125,2.5078125 2.5078125,3.51171875 2.5078125,4.74609375 C2.5078125,5.984375 3.51171875,6.984375 4.74609375,6.984375 C5.984375,6.984375 6.984375,5.98046875 6.984375,4.74609375 C6.98828125,3.5078125 5.984375,2.5078125 4.74609375,2.5078125 Z M4.74609375,6.19140625 C3.94921875,6.19140625 3.30078125,5.54296875 3.30078125,4.74609375 C3.30078125,3.94921875 3.94921875,3.30078125 4.74609375,3.30078125 C5.54296875,3.30078125 6.19140625,3.94921875 6.19140625,4.74609375 C6.19140625,5.54296875 5.546875,6.19140625 4.74609375,6.19140625 Z M9.55078125,1.1640625 C9.14453125,0.71484375 8.57421875,0.47265625 7.9609375,0.47265625 L3.76953125,0.4296875 C2.875,0.4296875 2.01953125,0.75390625 1.40625,1.40625 C0.75390625,2.01953125 0.4296875,2.875 0.4296875,3.76953125 L0.46875,7.96484375 C0.5078125,8.53515625 0.71484375,9.10546875 1.16015625,9.5546875 L11.1796875,19.5703125 L19.5703125,11.1796875 L9.55078125,1.1640625 Z M11.140625,18.4296875 L1.69140625,8.98046875 C1.40625,8.6953125 1.2421875,8.328125 1.2421875,7.921875 L1.203125,3.76953125 C1.203125,3.1171875 1.48828125,2.46484375 1.9375,1.9765625 C2.42578125,1.48828125 3.078125,1.203125 3.76953125,1.203125 L7.921875,1.2421875 C8.328125,1.2421875 8.6953125,1.40625 8.98046875,1.69140625 L18.4296875,11.140625 L11.140625,18.4296875 Z" id="Shape" fill="#FFFFFF"></path>
                        </g>
                    </g>
                </g>
            </g>
        </g>
    </g>
</svg>