<?xml version="1.0" encoding="UTF-8"?>
<svg width="208px" height="43px" viewBox="0 0 208 43" version="1.1" xmlns="http://www.w3.org/2000/svg" xmlns:xlink="http://www.w3.org/1999/xlink">
    <!-- Generator: Sketch 50.2 (55047) - http://www.bohemiancoding.com/sketch -->
    <title>Group 21</title>
    <desc>Created with Sketch.</desc>
    <defs></defs>
    <g id="鱼儿飞内部系统" stroke="none" stroke-width="1" fill="none" fill-rule="evenodd">
        <g id="首页" transform="translate(-43.000000, -14.000000)" fill="#FFFFFF">
            <g id="Group-2">
                <g id="Group-27">
                    <g id="Group-22">
                        <g id="Group-21" transform="translate(43.000000, 14.000000)">
                            <g id="logo1-copy" fill-rule="nonzero">
                                <g id="Group-28">
                                    <path d="M51.5476562,40.990625 C50.1203125,43.68125 44.275,42.10625 42.5078125,40.990625 C38.5936443,38.7238049 35.0442878,35.9159046 31.9726562,32.65625 C30.5702938,35.7174242 27.141,37.4139914 23.7484375,36.725 C20.9804717,36.9852445 18.243996,35.9914216 16.3398437,34.034375 C14.4367187,31.86875 14.8445312,30.95 14.7765625,27.471875 C14.7085937,23.99375 16.3398437,19.00625 16.3398437,15.59375 C19.6023437,12.70625 19.6023437,12.70625 22.796875,13.953125 C16,33.640625 23.2726562,33.640625 28.3703125,28.390625 C32.1765625,24.25625 35.1671875,8.703125 38.7015625,2.140625 C40.8335212,0.503207865 43.7042984,0.0787002732 46.2460937,1.025 C34.2835937,18.415625 32.9921875,28.71875 51.5476562,40.990625 Z" id="Shape"></path>
                                    <path d="M61.403125,25.634375 L46.6539063,26.159375 C46.7463985,26.8349301 47.1447933,27.4359567 47.7414063,27.8 C48.7005321,28.2900778 49.7882701,28.4955575 50.8679688,28.390625 C51.5911841,28.3469237 52.3025087,28.1918407 52.975,27.93125 C53.4756435,27.7541465 53.9369293,27.4869189 54.334375,27.14375 L61.13125,27.14375 C60.1617799,28.2648513 58.9258654,29.1429376 57.5289062,29.703125 C55.3390207,30.4489555 53.0505669,30.8908638 50.7320313,31.015625 C48.4750197,31.2853813 46.1921678,31.2853813 43.9351563,31.015625 C42.2281317,30.7412331 40.6173978,30.065063 39.2453125,29.046875 C38.0449132,28.1520658 37.3420027,26.7704832 37.3421875,25.30625 C37.4852085,23.0658859 38.9745737,21.1143039 41.1484375,20.31875 C44.0400911,19.116869 47.1807086,18.5777898 50.3242188,18.74375 C52.6303739,18.7104891 54.9265392,19.0430372 57.1210937,19.728125 C58.4149753,20.0737979 59.573856,20.7816856 60.4515625,21.7625 C61.2107143,22.7449196 61.5948982,23.9504621 61.5390625,25.175 L61.403125,25.634375 Z M54.60625,23.796875 C54.5385301,23.0612394 54.108576,22.4019183 53.4507813,22.025 C52.6667112,21.5920977 51.7698493,21.3870077 50.8679688,21.434375 C49.779058,21.3866461 48.7041704,21.6864615 47.809375,22.2875 C47.2678646,22.6910625 46.9038172,23.2768859 46.7898438,23.928125 L54.60625,23.796875 Z" id="Shape"></path>
                                    <path d="M62.1507813,19.4 L67.5882813,19.4 L67.5882813,20.975 C68.0006323,20.4123969 68.5338601,19.942325 69.1515625,19.596875 C69.7237793,19.3366518 70.355936,19.2236225 70.9867188,19.26875 C71.8149922,19.2945337 72.627211,19.496188 73.365625,19.859375 L71.8703125,22.353125 C71.4953826,22.2403722 71.1070984,22.1742142 70.7148438,22.15625 C70.109613,22.1250787 69.5183613,22.3391526 69.0835938,22.746875 C68.4300169,23.6934242 68.1413573,24.8314728 68.2679688,25.9625 L68.2679688,29.24375 L62.4226563,29.703125 L62.1507813,19.4 Z" id="Shape"></path>
                                    <path d="M80.5023438,19.990625 L82.3375,19.990625 L82.3375,22.15625 L80.5023438,22.15625 L80.5023438,28.128125 L76.2882813,28.45625 L76.2882813,22.15625 L74.5890625,22.15625 L74.5890625,19.596875 L76.2882813,19.596875 L76.2882813,19.203125 C76.2234834,18.8118602 76.2234834,18.4131398 76.2882813,18.021875 C76.3406917,17.6223869 76.5324731,17.2520504 76.8320313,16.971875 C77.1824549,16.733029 77.5735293,16.55534 77.9875,16.446875 C78.6621774,16.3341897 79.3518851,16.3341897 80.0265625,16.446875 C81.0092806,16.5444416 81.9851906,16.6978324 82.9492188,16.90625 L82.5414063,18.74375 L81.4539063,18.74375 C81.2381454,18.6611663 80.9961632,18.6712455 80.7885701,18.7714629 C80.5809769,18.8716802 80.4274363,19.0525432 80.3664063,19.26875 C80.3977406,19.5116343 80.4431241,19.7526359 80.5023438,19.990625 Z" id="Shape"></path>
                                    <path d="M92.6007813,24.51875 L86.5515625,24.51875 C86.5792027,24.8995199 86.7208888,25.2643209 86.959375,25.56875 C87.5917484,25.996827 88.4340329,25.996827 89.0664063,25.56875 C89.0664063,25.56875 89.40625,25.56875 89.6101563,25.109375 L92.4648438,25.109375 C92.1108649,25.7681878 91.5682307,26.3148897 90.9015625,26.684375 C90.0368668,27.1147824 89.0865519,27.3609531 88.1148438,27.40625 C87.2178422,27.5830359 86.2930953,27.5830359 85.3960938,27.40625 C84.7030986,27.1483348 84.1096071,26.6899137 83.696875,26.09375 C83.1973801,25.4510823 82.934267,24.6658671 82.9492188,23.8625 C82.9005917,22.6943239 83.4305435,21.5735064 84.3765625,20.84375 C85.4088375,20.0403424 86.7279211,19.66298 88.046875,19.79375 C88.9856477,19.8072117 89.9113512,20.0083128 90.765625,20.384375 C91.3449986,20.6801193 91.8186934,21.1374798 92.125,21.696875 C92.4779362,22.3893252 92.6417127,23.1573806 92.6007813,23.928125 L92.6007813,24.51875 Z M89.678125,23.271875 C89.6720487,22.8551513 89.5019416,22.4562795 89.2023438,22.15625 C88.934966,21.8924177 88.5648825,21.7494889 88.1828125,21.7625 C87.7121057,21.7416069 87.2587349,21.9361568 86.959375,22.2875 C86.7330746,22.5982726 86.5927038,22.959687 86.5515625,23.3375 L89.678125,23.271875 Z" id="Shape"></path>
                                    <path d="M96.5429687,11.2625 C97.5837795,11.3761404 98.5959404,11.664876 99.5335937,12.115625 C98.9590166,13.3860825 98.5040556,14.7039005 98.1742187,16.053125 C97.1465031,15.6055378 96.0767835,15.2539352 94.9796875,15.003125 C95.6398935,13.8147475 96.1640782,12.5604765 96.5429687,11.2625 Z M94.3679687,16.840625 C95.5014831,17.0899626 96.6146051,17.4189642 97.6984375,17.825 C94.9117187,28.0625 95.659375,21.89375 99.1257812,32.2625 C98.2623608,32.5845635 97.3765901,32.8477102 96.475,33.05 C96.1351562,27.209375 92.5328125,23.140625 94.3679687,16.840625 Z" id="Shape"></path>
                                    <path d="M29.2539063,2.46875 C24.971875,9.03125 24.0882813,12.509375 20.8257813,18.0875 C17.285365,20.8829104 13.9259283,23.8854266 10.7664063,27.078125 C10.2226563,30.884375 9.54296875,34.428125 9.54296875,37.053125 L5.940625,42.303125 C5.125,43.484375 3.42578125,43.15625 3.49375,41.84375 C5.19101037,37.2761748 6.37591369,32.5459905 7.028125,27.734375 C6.55234375,22.484375 2.20234375,19.728125 0.70703125,16.446875 C2.04132765,13.786948 2.73824725,10.8711005 2.74609375,7.915625 C4.39868004,12.5970083 6.44454478,17.140239 8.86328125,21.5 C17.359375,15.59375 23.1367188,6.93125 29.2539063,2.46875 Z" id="Shape"></path>
                                </g>
                            </g>
                            <text id="鱼儿飞" font-family="inpin-chibifuti, inpin chibifuti" font-size="20" font-weight="normal" line-spacing="20" letter-spacing="12.5">
                                <tspan x="125" y="32.40625">鱼儿飞</tspan>
                            </text>
                        </g>
                    </g>
                </g>
            </g>
        </g>
    </g>
</svg>