<?xml version="1.0" encoding="UTF-8"?>
<svg width="16px" height="17px" viewBox="0 0 16 17" version="1.1" xmlns="http://www.w3.org/2000/svg" xmlns:xlink="http://www.w3.org/1999/xlink">
    <!-- Generator: Sketch 50.2 (55047) - http://www.bohemiancoding.com/sketch -->
    <title>人</title>
    <desc>Created with Sketch.</desc>
    <defs></defs>
    <g id="鱼儿飞内部系统" stroke="none" stroke-width="1" fill="none" fill-rule="evenodd">
        <g id="管理人员列表" transform="translate(-62.000000, -949.000000)" fill-rule="nonzero">
            <g id="Group-2-Copy">
                <g id="Group-27">
                    <g id="Group-12" transform="translate(29.000000, 932.000000)">
                        <g id="人" transform="translate(31.000000, 16.000000)">
                            <rect id="Rectangle-path" fill="#000000" opacity="0" x="0" y="0" width="20" height="20"></rect>
                            <path d="M17.311613,13.9376374 C16.9118529,12.9922047 16.3401959,12.1447132 15.6106336,11.4151509 C14.8810713,10.6855887 14.0335798,10.1139316 13.0881471,9.7141715 C12.7743354,9.58225066 12.4545273,9.47031781 12.1287228,9.37837299 C13.3320008,8.65480711 14.1375175,7.33759744 14.1375175,5.83250051 C14.1375175,3.55186889 12.2806316,1.69498303 10,1.69498303 C7.71936838,1.69498303 5.86248252,3.55186889 5.86248252,5.83250051 C5.86248252,7.33559865 6.66799922,8.65480713 7.87127725,9.37837299 C7.54547273,9.46831902 7.22566461,9.58025186 6.91185291,9.7141715 C5.96642018,10.1139316 5.11892867,10.6855887 4.38936641,11.4151509 C3.65980414,12.1447132 3.08814713,12.9922047 2.68838699,13.9376374 C2.27463523,14.9170498 2.06476117,15.9564262 2.06476117,17.0257845 C2.06476117,17.2696382 2.26064363,17.4655207 2.50449732,17.4655207 C2.74835102,17.4655207 2.94423348,17.2696382 2.94423348,17.0257845 C2.94423348,13.1361183 6.11033381,9.97001799 10,9.97001799 C13.8896662,9.97001799 17.0557666,13.1361183 17.0557666,17.0257845 C17.0557666,17.2696382 17.251649,17.4655207 17.4955027,17.4655207 C17.7393564,17.4655207 17.9352389,17.2696382 17.9352389,17.0257845 C17.9352388,15.9564262 17.7253648,14.9170498 17.311613,13.9376374 Z M6.74195482,5.83250051 C6.74195482,4.03557865 8.20307814,2.57445533 10,2.57445533 C11.7969219,2.57445533 13.2580452,4.03557865 13.2580452,5.83250051 C13.2580452,7.62942236 11.7969219,9.09054568 10,9.09054568 C8.20307814,9.09054568 6.74195482,7.62942234 6.74195482,5.83250051 Z" id="Shape" fill="#FFFFFF"></path>
                        </g>
                    </g>
                </g>
            </g>
        </g>
    </g>
</svg>