<?xml version="1.0" encoding="UTF-8"?>
<svg width="18px" height="15px" viewBox="0 0 18 15" version="1.1" xmlns="http://www.w3.org/2000/svg" xmlns:xlink="http://www.w3.org/1999/xlink">
    <!-- Generator: Sketch 50.2 (55047) - http://www.bohemiancoding.com/sketch -->
    <title>会员</title>
    <desc>Created with Sketch.</desc>
    <defs></defs>
    <g id="鱼儿飞内部系统" stroke="none" stroke-width="1" fill="none" fill-rule="evenodd">
        <g id="会员管理列表" transform="translate(-61.000000, -459.000000)" fill-rule="nonzero">
            <g id="Group-2">
                <g id="Group-27">
                    <g id="Group-15" transform="translate(29.000000, 440.250000)">
                        <g id="Group-6" transform="translate(31.000000, 16.000000)">
                            <g id="会员">
                                <rect id="Rectangle-path" fill="#000000" opacity="0" x="0" y="0" width="20" height="20"></rect>
                                <path d="M17.1466602,5.90400391 C16.5848828,5.90400391 16.1297656,6.35910156 16.1297656,6.92089844 C16.1297656,7.063125 16.1582031,7.19822266 16.2103711,7.32150391 L12.8966016,8.69630859 L10.566543,4.69275391 C10.8320312,4.50785156 11.0050586,4.20208984 11.0050586,3.85601563 C11.0050586,3.29423828 10.5499609,2.83912109 9.98816406,2.83912109 C9.42636719,2.83912109 8.97126953,3.29421875 8.97126953,3.85601563 C8.97126953,4.19972656 9.14193359,4.503125 9.40265625,4.68800781 L6.81660156,8.69394531 L3.794375,7.34046875 C3.85126953,7.21246094 3.88443359,7.07261719 3.88443359,6.92328125 C3.88443359,6.36150391 3.42933594,5.90638672 2.86753906,5.90638672 C2.30574219,5.90638672 1.84591797,6.35912109 1.84591797,6.92089844 C1.84591797,7.47556641 2.28917969,7.9259375 2.84148438,7.93779297 L4.41777344,14.7336523 C4.47705078,14.9920313 4.70695313,15.1745508 4.97244141,15.1745508 L14.9967383,15.1745508 C15.2622266,15.1745508 15.4921289,14.9920313 15.5514062,14.7336523 L17.1300781,7.93779297 L17.1466797,7.93779297 C17.708457,7.93779297 18.1635742,7.48269531 18.1635742,6.92089844 C18.1635742,6.35910156 17.7084766,5.90400391 17.1466797,5.90400391 L17.1466602,5.90400391 Z M14.5463672,14.0367383 L5.42517578,14.0367383 L4.20445312,8.77212891 L6.79527344,9.93361328 C7.05126953,10.0473828 7.35466797,9.95966797 7.50638672,9.72265625 L9.96208984,5.91583984 L12.1641602,9.69894531 C12.3063867,9.94546875 12.6097852,10.0473828 12.8728906,9.93833984 L15.7789453,8.73181641 L14.5463477,14.0367188 L14.5463672,14.0367383 Z M14.8900586,16.0088867 L5.08144531,16.0112695 C4.76617187,16.0112695 4.51255859,16.2649023 4.51255859,16.5801562 C4.51255859,16.8954102 4.76619141,17.149043 5.08144531,17.149043 L14.8900586,17.1466602 C15.205332,17.1466602 15.4589453,16.8930273 15.4589453,16.5777734 C15.4589453,16.2625195 15.2053125,16.0088867 14.8900586,16.0088867 Z" id="Shape" fill="#FFFFFF"></path>
                            </g>
                        </g>
                    </g>
                </g>
            </g>
        </g>
    </g>
</svg>