<?xml version="1.0" encoding="UTF-8"?>
<svg width="20px" height="21px" viewBox="0 0 20 21" version="1.1" xmlns="http://www.w3.org/2000/svg" xmlns:xlink="http://www.w3.org/1999/xlink">
    <!-- Generator: Sketch 50.2 (55047) - http://www.bohemiancoding.com/sketch -->
    <title>商户管理（守）</title>
    <desc>Created with Sketch.</desc>
    <defs></defs>
    <g id="鱼儿飞内部系统" stroke="none" stroke-width="1" fill="none" fill-rule="evenodd">
        <g id="商户产品展示列表-copy-2" transform="translate(-60.000000, -737.000000)" fill-rule="nonzero">
            <g id="Group-2-Copy">
                <g id="Group-27">
                    <g id="Group-9" transform="translate(29.000000, 721.250000)">
                        <g id="商户管理（守）" transform="translate(31.000000, 16.000000)">
                            <rect id="Rectangle-path" fill="#000000" opacity="0" x="0" y="0" width="20" height="20"></rect>
                            <path d="M14.551582,17.4582227 C14.3255078,17.4582227 14.1400781,17.6425586 14.1400781,17.8699023 L14.1400781,18.8469141 C14.1400781,18.9809375 14.0302344,19.0939844 13.9002344,19.0939844 L1.20462891,19.0939844 C1.07558594,19.0939844 0.967011719,18.9809375 0.967011719,18.8469141 L0.967011719,1.23320313 C0.967011719,1.09693359 1.07558594,0.981660156 1.20462891,0.981660156 L10.8471484,0.976542969 L10.8471484,3.86294922 C10.8471484,4.09080078 11.0325391,4.27460938 11.2586133,4.27460938 L14.1400586,4.27460938 L14.1400586,5.56203125 C14.1400586,5.78996094 14.3254883,5.97361328 14.5515625,5.97361328 C14.6608393,5.97393064 14.7657354,5.9306771 14.8430281,5.85342837 C14.9203208,5.77617965 14.9636341,5.67130826 14.9633789,5.56203125 L14.9633789,3.86294922 C14.9633789,3.51863281 14.7947656,3.30662109 14.6466602,3.16132812 L11.9191016,0.470566406 C11.7857422,0.338789063 11.6048242,0.158417969 11.2586328,0.158417969 L1.20462891,0.158417969 C0.619882813,0.158417969 0.144003906,0.640683594 0.144003906,1.23320313 L0.144003906,18.8469336 C0.144003906,19.437207 0.619882812,19.9172266 1.20462891,19.9172266 L13.9002344,19.9172266 C14.4860937,19.9172266 14.963418,19.437207 14.963418,18.8469336 L14.963418,17.8699219 C14.9633984,17.6425586 14.7800781,17.4582227 14.551582,17.4582227 Z M13.7692578,3.45134766 L11.6704492,3.45134766 L11.6704492,1.38082031 L13.7692578,3.45134766 Z" id="Shape" fill="#FFFFFF"></path>
                            <path d="M8.74255859,10.82375 L3.79417969,10.82375 C3.56568359,10.82375 3.38253906,11.0080469 3.38253906,11.2353516 C3.38225804,11.3446114 3.42553695,11.4494771 3.50279554,11.5267357 C3.58005414,11.6039943 3.6849199,11.6472732 3.79417969,11.6469922 L8.74255859,11.6469922 C8.85183606,11.6472782 8.95672278,11.6040066 9.03401038,11.526752 C9.11129797,11.4494974 9.1546144,11.3446291 9.154375,11.2353516 C9.154375,11.0080273 8.97105469,10.82375 8.74255859,10.82375 Z M8.74255859,13.3178125 L3.79417969,13.3178125 C3.56568359,13.3178125 3.38253906,13.5021094 3.38253906,13.729375 C3.38253906,13.9566406 3.56568359,14.1409375 3.79417969,14.1409375 L8.74255859,14.1409375 C8.97105469,14.1409375 9.154375,13.9566406 9.154375,13.729375 C9.154375,13.5021094 8.97105469,13.3178125 8.74255859,13.3178125 Z M8.74255859,8.33025391 L3.79417969,8.33025391 C3.68492689,8.32996249 3.58006398,8.37323001 3.50280481,8.45047818 C3.42554565,8.52772635 3.3822632,8.6325831 3.38253906,8.74183594 C3.38224237,8.8511023 3.42551562,8.95597917 3.50277706,9.03324427 C3.58003849,9.11050937 3.68491332,9.1537876 3.79417969,9.15349609 L8.74255859,9.15349609 C8.85184264,9.15379263 8.95673841,9.11052165 9.03402885,9.03326054 C9.11131928,8.95599943 9.15463006,8.85112009 9.154375,8.74183594 C9.15460924,8.63256531 9.11128928,8.52770609 9.03400111,8.4504619 C8.95671294,8.37321772 8.85182907,8.32995746 8.74255859,8.33025391 Z M19.4786914,14.1279883 C17.3324805,13.2476953 16.88,12.8585937 16.7919141,12.7625195 L16.7919141,12.5663867 C17.0416992,12.2575977 17.2384766,11.8708398 17.3686719,11.4326953 C17.5416016,11.2596875 17.656875,11.0289453 17.689707,10.7802148 C17.7269922,10.5184375 17.6761133,10.2600781 17.5471875,10.0367187 L17.5471875,9.16599609 C17.5471875,7.82601562 16.7318945,7.02478516 15.364668,7.02478516 C14.019043,7.02478516 13.1811328,7.84523437 13.1811328,9.16599609 L13.1811328,10.0372852 C13.0522461,10.2594531 13.0035742,10.5173047 13.0386523,10.7779102 C13.0737109,11.0284766 13.1878906,11.2591406 13.3596875,11.4321484 C13.4909766,11.8703711 13.6888867,12.2570508 13.9364062,12.5663867 L13.9364062,12.7529297 C13.8301172,12.8755664 13.348457,13.2668945 11.2507812,14.1279883 C10.9805078,14.2394336 10.8064453,14.5045898 10.8064453,14.8036914 L10.8064453,15.9147461 C10.8064453,16.3155859 11.1230078,16.6429492 11.5119141,16.6429492 L19.2173828,16.6429492 C19.605332,16.6429492 19.921875,16.3155859 19.921875,15.9147461 L19.921875,14.8036914 C19.921875,14.5034375 19.7476758,14.2382422 19.4786914,14.1279883 Z M19.0987695,15.819707 L11.6296289,15.819707 L11.6296289,14.8618945 C14.3152539,13.7554102 14.6466992,13.3082031 14.7427734,12.9745117 C14.7552734,12.9366992 14.7608594,12.8970898 14.7608594,12.858125 L14.7608594,12.4136133 C14.7608594,12.3107422 14.7213281,12.21125 14.6511914,12.1348633 C14.4159766,11.8799805 14.232832,11.5220313 14.1220117,11.099082 C14.0981445,11.0091797 14.045,10.9288672 13.9716797,10.8741211 C13.9082617,10.8271289 13.8662891,10.7513867 13.8539648,10.6653906 C13.8471094,10.6123047 13.8461523,10.5076953 13.9194922,10.410957 C13.9761523,10.3391602 14.0043359,10.2504492 14.0043359,10.1604687 L14.0043359,9.16597656 C14.0043359,8.29183594 14.4635352,7.84855469 15.3646875,7.84855469 C16.2806641,7.84855469 16.724082,8.27941406 16.724082,9.16597656 L16.724082,10.16 C16.724082,10.2504687 16.7544922,10.3386328 16.8089258,10.4104102 C16.8845117,10.5076953 16.8835352,10.6128125 16.8755273,10.665957 C16.8630469,10.7519531 16.8212695,10.8276758 16.7589648,10.8741211 C16.6833789,10.9288672 16.6311914,11.0091797 16.6063672,11.099082 C16.4955664,11.5225977 16.3123828,11.8804492 16.0783008,12.1348633 C16.0081641,12.21125 15.9686328,12.3107617 15.9686328,12.4136133 L15.9686328,12.858125 C15.9686328,12.8970898 15.9753711,12.9366992 15.9855859,12.974043 C16.0839258,13.3082031 16.4131055,13.755957 19.0987695,14.8618945 L19.0987695,15.819707 Z" id="Shape" fill="#FFFFFF"></path>
                        </g>
                    </g>
                </g>
            </g>
        </g>
    </g>
</svg>