<?xml version="1.0" encoding="UTF-8"?>
<svg width="17px" height="16px" viewBox="0 0 17 16" version="1.1" xmlns="http://www.w3.org/2000/svg" xmlns:xlink="http://www.w3.org/1999/xlink">
    <!-- Generator: Sketch 50.2 (55047) - http://www.bohemiancoding.com/sketch -->
    <title>退出</title>
    <desc>Created with Sketch.</desc>
    <defs></defs>
    <g id="鱼儿飞内部系统" stroke="none" stroke-width="1" fill="none" fill-rule="evenodd">
        <g id="推广链接列表" transform="translate(-1798.000000, -28.000000)" fill-rule="nonzero">
            <g id="Group-23" transform="translate(308.000000, 0.000000)">
                <g id="退出" transform="translate(1488.000000, 26.000000)">
                    <rect id="Rectangle-path" fill="#000000" opacity="0" x="0" y="0" width="20" height="20"></rect>
                    <path d="M3.60454545,15 L3.60454545,5 C3.60454545,4.24727273 4.21545453,3.63636363 4.96818182,3.63636363 L10.8772727,3.63636363 L10.8772727,2.72727273 L4.51363637,2.72727273 C3.50909092,2.72727273 2.69545455,3.5409091 2.69545455,4.54545455 L2.69545455,15.4545455 C2.69545455,16.4590909 3.50909092,17.2727273 4.51363637,17.2727273 L10.8772727,17.2727273 L10.8772727,16.3636364 L4.96818182,16.3636364 C4.21454545,16.3636364 3.60454545,15.7527273 3.60454545,15 Z M18.0490909,9.67818182 L14.8345455,6.46363637 C14.6572727,6.28636363 14.3690909,6.28636363 14.1918182,6.46363637 C14.0145455,6.6409091 14.0145455,6.92909092 14.1918182,7.10636363 L16.63,9.54454545 L7.69545455,9.54454545 C7.44454547,9.54454545 7.2409091,9.74818182 7.2409091,9.9990909 C7.2409091,10.25 7.44454547,10.4536363 7.69545455,10.4536363 L16.63,10.4536363 L14.1918182,12.8918182 C14.0145454,13.0690909 14.0145454,13.3572727 14.1918182,13.5345454 C14.3690909,13.7118182 14.6572727,13.7118182 14.8345454,13.5345454 L18.0490909,10.32 C18.2263636,10.1436364 18.2263636,9.85636363 18.0490909,9.67818182 Z" id="Shape" fill="#A4D1FF"></path>
                </g>
            </g>
        </g>
    </g>
</svg>