<?xml version="1.0" encoding="UTF-8"?>
<svg width="20px" height="20px" viewBox="0 0 20 20" version="1.1" xmlns="http://www.w3.org/2000/svg" xmlns:xlink="http://www.w3.org/1999/xlink">
    <!-- Generator: Sketch 50.2 (55047) - http://www.bohemiancoding.com/sketch -->
    <title>链接</title>
    <desc>Created with Sketch.</desc>
    <defs></defs>
    <g id="鱼儿飞内部系统" stroke="none" stroke-width="1" fill="none" fill-rule="evenodd">
        <g id="首页" transform="translate(-60.000000, -878.000000)" fill-rule="nonzero">
            <g id="Group-2">
                <g id="Group-27">
                    <g id="Group-13" transform="translate(29.000000, 861.750000)">
                        <g id="链接" transform="translate(31.000000, 16.000000)">
                            <rect id="Rectangle-path" fill="#000000" opacity="0" x="0" y="0" width="20" height="20"></rect>
                            <path d="M12.25,13.125 L6.9375,7.8125 C6.6875,7.5625 6.6875,7.1875 6.9375,6.9375 C7.1875,6.6875 7.5625,6.6875 7.8125,6.9375 L13.125,12.25 C13.375,12.5 13.375,12.875 13.125,13.125 C12.875,13.375 12.5,13.375 12.25,13.125 Z" id="Shape" fill="#2290FF"></path>
                            <path d="M7.75,10 C7.5625,9.8125 7.25,9.75 7.0625,9.875 C6.375,10.1875 5.5,10.0625 4.9375,9.5 L2.0625,6.625 C1.3125,5.875 1.3125,4.6875 2.0625,4 L4,2.0625 C4.75,1.3125 5.9375,1.3125 6.625,2.0625 L9.5,4.9375 C10.0625,5.5 10.1875,6.375 9.875,7.0625 C9.75,7.3125 9.75,7.625 10,7.8125 C10.3125,8.125 10.8125,8 11,7.625 C11.5625,6.4375 11.375,5 10.4375,4 L7.5,1.1875 C6.25,-0.0625 4.3125,-0.0625 3.0625,1.1875 L1.1875,3.125 C-0.0625,4.375 -0.0625,6.3125 1.1875,7.5625 L4.0625,10.4375 C5,11.375 6.4375,11.5625 7.625,11.0625 C7.9375,10.8125 8.0625,10.3125 7.75,10 Z M11.8125,9.5625 C12,9.75 12.3125,9.8125 12.5,9.6875 C13.1875,9.375 14.0625,9.5 14.625,10.0625 L17.5,12.9375 C18.25,13.6875 18.25,14.875 17.5,15.5625 L15.5625,17.5 C14.8125,18.25 13.625,18.25 12.9375,17.5 L10.0625,14.625 C9.5,14.0625 9.375,13.1875 9.6875,12.5 C9.8125,12.25 9.8125,11.9375 9.5625,11.75 C9.25,11.4375 8.75,11.5625 8.5625,11.9375 C8,13.125 8.1875,14.5625 9.125,15.5625 L12,18.4375 C13.25,19.6875 15.1875,19.6875 16.4375,18.4375 L18.375,16.5 C19.625,15.25 19.625,13.3125 18.375,12.0625 L15.5,9.1875 C14.5625,8.25 13.125,8.0625 11.9375,8.5625 C11.625,8.75 11.5,9.25 11.8125,9.5625 Z" id="Shape" fill="#2290FF"></path>
                        </g>
                    </g>
                </g>
            </g>
        </g>
    </g>
</svg>