<?xml version="1.0" encoding="UTF-8"?>
<svg width="23px" height="23px" viewBox="0 0 23 23" version="1.1" xmlns="http://www.w3.org/2000/svg" xmlns:xlink="http://www.w3.org/1999/xlink">
    <!-- Generator: Sketch 50.2 (55047) - http://www.bohemiancoding.com/sketch -->
    <title>搜索-互动</title>
    <desc>Created with Sketch.</desc>
    <defs></defs>
    <g id="鱼儿飞内部系统" stroke="none" stroke-width="1" fill="none" fill-rule="evenodd">
        <g id="会员管理列表" transform="translate(-1726.000000, -146.000000)" fill-rule="nonzero">
            <g id="Group-4" transform="translate(1443.000000, 127.000000)">
                <g id="Group-2" transform="translate(228.000000, 0.000000)">
                    <g id="搜索-互动" transform="translate(53.000000, 17.000000)">
                        <rect id="Rectangle-path" fill="#000000" opacity="0" x="0" y="0" width="26" height="26"></rect>
                        <path d="M24.779383,23.6217044 L20.8678546,19.4401097 C22.453299,17.5324569 23.3251704,15.1544463 23.3251704,12.6518811 C23.3251704,6.77896537 18.5417706,2 12.661765,2 C6.78339976,2.00081944 2,6.77896537 2,12.6527006 C2,18.5256164 6.78339976,23.3037623 12.6625852,23.3037623 C14.2029187,23.3029429 15.6882988,22.981723 17.0768955,22.3499359 C17.4894555,22.1622845 17.6715396,21.6763574 17.4837141,21.2649993 C17.2958886,20.8511828 16.8078702,20.6684481 16.3977708,20.8585578 C15.2224258,21.3928317 13.9658812,21.6640658 12.661765,21.6648853 C7.68725891,21.6648853 3.64039772,17.6217757 3.64039772,12.6527006 C3.64039772,7.68280604 7.68725891,3.63969645 12.661765,3.63969645 C17.6370913,3.63969645 21.6847727,7.68280604 21.6847727,12.6527006 C21.6847727,14.9913781 20.7915761,17.2087787 19.1708632,18.8935442 C18.856727,19.2196808 18.8673896,19.7383853 19.1930085,20.0522303 C19.2176145,20.075994 19.2496023,20.0850078 19.2766688,20.1054938 C19.2996344,20.1382713 19.310297,20.1759655 19.3381837,20.2054653 L23.5802522,24.740238 C23.7410112,24.9131395 23.9600043,25 24.1789974,25 C24.3799461,25 24.5808949,24.92707 24.7391932,24.7787516 C25.0705536,24.4706427 25.088598,23.9527576 24.779383,23.6217044 Z" id="Shape" fill="#FFFFFF"></path>
                    </g>
                </g>
            </g>
        </g>
    </g>
</svg>