<?xml version="1.0" encoding="UTF-8"?>
<svg width="17px" height="16px" viewBox="0 0 17 16" version="1.1" xmlns="http://www.w3.org/2000/svg" xmlns:xlink="http://www.w3.org/1999/xlink">
    <!-- Generator: Sketch 50.2 (55047) - http://www.bohemiancoding.com/sketch -->
    <title>服务超市</title>
    <desc>Created with Sketch.</desc>
    <defs></defs>
    <g id="鱼儿飞内部系统" stroke="none" stroke-width="1" fill="none" fill-rule="evenodd">
        <g id="首页" transform="translate(-62.000000, -810.000000)" fill="#2290FF" fill-rule="nonzero">
            <g id="Group-2">
                <g id="Group-27">
                    <g id="Group-14" transform="translate(29.000000, 791.500000)">
                        <g id="服务超市" transform="translate(31.000000, 16.000000)">
                            <path d="M18.9999609,8.49998047 L18.9999609,7.49998047 C18.9999609,7.42201172 18.9819922,7.34597656 18.9470312,7.27595703 L16.9470312,3.27597656 C16.8619727,3.10699219 16.6890234,3 16.4999609,3 L4.5,3 C4.31099609,3 4.13701172,3.10697266 4.05298828,3.27597656 L2.05298828,7.27595703 C2.01802734,7.345 2.00001953,7.42199219 2.00001953,7.49998047 L2.00001953,8.49998047 C2.00001953,9.31599609 2.39302734,10.0419727 3.00001953,10.4990039 L3.00001953,16.9999609 L2.5,16.9999609 C2.22398438,16.9999609 2,17.2239844 2,17.4999609 C2,17.7759375 2.22396484,17.9999609 2.5,17.9999609 L18.4999609,17.9999609 C18.7759375,17.9999609 18.9999609,17.7759375 18.9999609,17.4999609 C18.9999609,17.2239844 18.7759375,16.9999609 18.4999609,16.9999609 L17.9999609,16.9999609 L17.9999609,10.4989844 C18.6069922,10.0419727 18.9999609,9.31697266 18.9999609,8.49998047 Z M12.4999609,9.99998047 C11.6730078,9.99998047 10.9999609,9.32693359 10.9999609,8.49998047 L10.9999609,7.99998047 L13.9999609,7.99998047 L13.9999609,8.49998047 C13.9999609,9.32693359 13.3269141,9.99998047 12.4999609,9.99998047 Z M3,8.49998047 L3,7.99998047 L6,7.99998047 L6,8.49998047 C6,9.32693359 5.32701172,9.99998047 4.5,9.99998047 C3.67298828,9.99998047 3,9.32693359 3,8.49998047 Z M9.99998047,3.99998047 L9.99998047,6.99998047 L7.13998047,6.99998047 L7.88998047,3.99998047 L9.99998047,3.99998047 Z M13.1099219,3.99998047 L13.8599219,6.99998047 L10.9999609,6.99998047 L10.9999609,3.99998047 L13.1099219,3.99998047 Z M6.99998047,7.99998047 L9.99998047,7.99998047 L9.99998047,8.49998047 C9.99998047,9.32693359 9.32699219,9.99998047 8.49998047,9.99998047 C7.67296875,9.99998047 6.99998047,9.32693359 6.99998047,8.49998047 L6.99998047,7.99998047 Z M14.9999609,7.99998047 L17.9999609,7.99998047 L17.9999609,8.49998047 C17.9999609,9.32693359 17.3269141,9.99998047 16.4999609,9.99998047 C15.6730078,9.99998047 14.9999609,9.32693359 14.9999609,8.49998047 L14.9999609,7.99998047 Z M17.6909766,6.99998047 L14.89,6.99998047 L14.14,3.99998047 L16.1909766,3.99998047 L17.6909766,6.99998047 Z M4.80896484,3.99998047 L6.85998047,3.99998047 L6.10998047,6.99998047 L3.30898438,6.99998047 L4.80896484,3.99998047 Z M4,10.9499609 C4.16201172,10.9829688 4.32900391,10.9999609 4.5,10.9999609 C5.31699219,10.9999609 6.04398438,10.6060156 6.5,9.99800781 C6.95599609,10.6060156 7.68300781,10.9999609 8.5,10.9999609 C9.31699219,10.9999609 10.0439844,10.6060156 10.5,9.99800781 C10.8609766,10.4778906 11.3900391,10.8249609 12,10.9489844 L12,16.9989648 L4,16.9989648 L4,10.9489844 L4,10.9499609 Z M16.9999609,16.9999609 L12.9999609,16.9999609 L12.9999609,10.9499609 C13.6099219,10.8259375 14.1390234,10.4789648 14.4999609,9.99898437 C14.9560156,10.6069922 15.6829688,11.0009375 16.4999609,11.0009375 C16.670957,11.0009375 16.8379492,10.9839453 16.9999609,10.9509375 L16.9999609,17.000918 L16.9999609,16.9999609 Z M14.9999609,13.4999609 C14.9999609,13.7759375 14.7759375,13.9999609 14.4999609,13.9999609 C14.2239844,13.9999609 13.9999609,13.7759375 13.9999609,13.4999609 C13.9999609,13.2239844 14.2239844,12.9999609 14.4999609,12.9999609 C14.7759375,12.9999609 14.9999609,13.2239844 14.9999609,13.4999609 Z M5.49998047,13.9999609 C5.37201172,13.9999609 5.24398438,13.9509375 5.14597656,13.8539648 C4.95095703,13.6589453 4.95095703,13.3419531 5.14597656,13.1470312 L6.14597656,12.1470312 C6.34099609,11.9519141 6.65798828,11.9519141 6.85294922,12.1470312 C7.04796875,12.3419531 7.04796875,12.6589453 6.85294922,12.8539648 L5.85294922,13.8539648 C5.75496094,13.9519141 5.62697266,13.9999609 5.49900391,13.9999609 L5.49998047,13.9999609 Z M6.49998047,15.9999609 C6.37201172,15.9999609 6.24398437,15.9509375 6.14597656,15.8539648 C5.95095703,15.6589453 5.95095703,15.3419531 6.14597656,15.1470312 L9.14597656,12.1470312 C9.34099609,11.9519141 9.65798828,11.9519141 9.85294922,12.1470312 C10.0479687,12.3419531 10.0479687,12.6589453 9.85294922,12.8539648 L6.85294922,15.8539648 C6.75496094,15.9519141 6.62697266,15.9999609 6.49900391,15.9999609 L6.49998047,15.9999609 Z M9.49998047,15.9999609 C9.37201172,15.9999609 9.24398438,15.9509375 9.14597656,15.8539648 C8.95095703,15.6589453 8.95095703,15.3419531 9.14597656,15.1470312 L10.1459766,14.1470312 C10.3409961,13.9519141 10.6579883,13.9519141 10.8529492,14.1470312 C11.0479688,14.3419531 11.0479688,14.6589453 10.8529492,14.8539648 L9.85294922,15.8539648 C9.75496094,15.9519141 9.62697266,15.9999609 9.49900391,15.9999609 L9.49998047,15.9999609 Z" id="Shape"></path>
                        </g>
                    </g>
                </g>
            </g>
        </g>
    </g>
</svg>